<?xml version="1.0" encoding="UTF-8"?>
<svg id="exportSvg" xmlns="http://www.w3.org/2000/svg" viewBox="0 0 666 420.89">
  <text transform="translate(0 22)" style="font-family: Arial-BoldMT, Arial; font-size: 22px; font-weight: 700; isolation: isolate;"><tspan x="0" y="0">Little Change in Mining Pressure on Indigenous Lands</tspan></text>
  <text transform="translate(0 49)" style="fill: #181818; font-family: ArialMT, Arial; font-size: 14px; isolation: isolate;"><tspan x="0" y="0" style="letter-spacing: -.092em;">Y</tspan><tspan x="8.053" y="0">ears under governments from across the political spectrum appear among those with the most</tspan></text>
  <text transform="translate(0 66)" style="fill: #181818; font-family: ArialMT, Arial; font-size: 14px; isolation: isolate;"><tspan x="0" y="0">mining requests inside these protected areas.</tspan></text>
  <text transform="translate(1 93.797)" style="fill: #181818; font-family: ArialMT, Arial; font-size: 12px; isolation: isolate;"><tspan x="0" y="0">20</tspan><tspan x="13.348" y="0" style="letter-spacing: -.074em;">1</tspan><tspan x="19.131" y="0">1</tspan></text>
  <rect x="37.828" y="79" width="561.156" height="20" style="fill: #e31a1c;"/>
  <text transform="translate(1 117.797)" style="fill: #181818; font-family: ArialMT, Arial; font-size: 12px; isolation: isolate;"><tspan x="0" y="0">2008</tspan></text>
  <rect x="37.828" y="103" width="556.938" height="20" style="fill: #e31a1c;"/>
  <text transform="translate(1 141.797)" style="fill: #181818; font-family: ArialMT, Arial; font-size: 12px; isolation: isolate;"><tspan x="0" y="0">1996</tspan></text>
  <rect x="37.828" y="127" width="540.062" height="20" style="fill: #18a1cd;"/>
  <text transform="translate(1 165.797)" style="fill: #181818; font-family: ArialMT, Arial; font-size: 12px; isolation: isolate;"><tspan x="0" y="0">2021</tspan></text>
  <rect x="37.828" y="151" width="455.688" height="20" style="fill: #4daf4a;"/>
  <text transform="translate(1 189.797)" style="fill: #181818; font-family: ArialMT, Arial; font-size: 12px; isolation: isolate;"><tspan x="0" y="0">2016</tspan></text>
  <rect x="37.828" y="175" width="455.688" height="20" style="fill: #18a1cd;"/>
  <text transform="translate(1 213.797)" style="fill: #181818; font-family: ArialMT, Arial; font-size: 12px; isolation: isolate;"><tspan x="0" y="0">2013</tspan></text>
  <rect x="37.828" y="199" width="443.031" height="20" style="fill: #e31a1c;"/>
  <text transform="translate(1 237.797)" style="fill: #181818; font-family: ArialMT, Arial; font-size: 12px; isolation: isolate;"><tspan x="0" y="0">1994</tspan></text>
  <rect x="37.828" y="223" width="434.594" height="20" style="fill: #18a1cd;"/>
  <text transform="translate(1 261.797)" style="fill: #181818; font-family: ArialMT, Arial; font-size: 12px; isolation: isolate;"><tspan x="0" y="0">1984</tspan></text>
  <rect x="37.828" y="247" width="426.156" height="20" style="fill: #984ea3;"/>
  <text transform="translate(1 285.797)" style="fill: #181818; font-family: ArialMT, Arial; font-size: 12px; isolation: isolate;"><tspan x="0" y="0">2019</tspan></text>
  <rect x="37.828" y="271" width="405.047" height="20" style="fill: #4daf4a;"/>
  <text transform="translate(1 309.797)" style="fill: #181818; font-family: ArialMT, Arial; font-size: 12px; isolation: isolate;"><tspan x="0" y="0">2020</tspan></text>
  <rect x="37.828" y="295" width="388.172" height="20" style="fill: #4daf4a;"/>
  <text transform="translate(42.828 94)" style="fill: #fff; font-family: ArialMT, Arial; font-size: 12px; isolation: isolate;"><tspan x="0" y="0">133</tspan></text>
  <text transform="translate(42.828 118)" style="fill: #fff; font-family: ArialMT, Arial; font-size: 12px; isolation: isolate;"><tspan x="0" y="0">132</tspan></text>
  <text transform="translate(42.828 142)" style="fill: #fff; font-family: ArialMT, Arial; font-size: 12px; isolation: isolate;"><tspan x="0" y="0">128</tspan></text>
  <text transform="translate(42.828 166)" style="fill: #fff; font-family: ArialMT, Arial; font-size: 12px; isolation: isolate;"><tspan x="0" y="0">108</tspan></text>
  <text transform="translate(42.828 190)" style="fill: #fff; font-family: ArialMT, Arial; font-size: 12px; isolation: isolate;"><tspan x="0" y="0">108</tspan></text>
  <text transform="translate(42.828 214)" style="fill: #fff; font-family: ArialMT, Arial; font-size: 12px; isolation: isolate;"><tspan x="0" y="0">105</tspan></text>
  <text transform="translate(42.828 238)" style="fill: #fff; font-family: ArialMT, Arial; font-size: 12px; isolation: isolate;"><tspan x="0" y="0">103</tspan></text>
  <text transform="translate(42.828 262)" style="fill: #fff; font-family: ArialMT, Arial; font-size: 12px; isolation: isolate;"><tspan x="0" y="0">101</tspan></text>
  <text transform="translate(42.828 286)" style="fill: #fff; font-family: ArialMT, Arial; font-size: 12px; isolation: isolate;"><tspan x="0" y="0">96</tspan></text>
  <text transform="translate(42.828 310)" style="fill: #fff; font-family: ArialMT, Arial; font-size: 12px; isolation: isolate;"><tspan x="0" y="0">92</tspan></text>
  <text transform="translate(0 415)" style="fill: #888; font-family: ArialMT, Arial; font-size: 11px; isolation: isolate;"><tspan x="0" y="0">Chart:</tspan></text>
  <text transform="translate(32.689 415)" style="fill: #888; font-family: ArialMT, Arial; font-size: 11px; isolation: isolate;"><tspan x="0" y="0">Phillippe </tspan><tspan x="44.639" y="0" style="letter-spacing: -.037em;">W</tspan><tspan x="54.613" y="0">atanabe</tspan></text>
  <text transform="translate(129.803 415)" style="fill: #888; font-family: ArialMT, Arial; font-size: 11px; isolation: isolate;"><tspan x="0" y="0">•</tspan></text>
  <text transform="translate(136.394 415)" style="fill: #888; font-family: ArialMT, Arial; font-size: 11px; isolation: isolate;"><tspan x="0" y="0">Source:</tspan></text>
  <text transform="translate(177.037 415)" style="fill: #888; font-family: ArialMT, Arial; font-size: 11px; isolation: isolate;"><tspan x="0" y="0">Mining Geographic Information System (SIGMINE)</tspan></text>
  <text transform="translate(426.75 415)" style="fill: #888; font-family: ArialMT, Arial; font-size: 11px; isolation: isolate;"><tspan x="0" y="0">•</tspan></text>
  <text transform="translate(433.34 415)" style="fill: #888; font-family: ArialMT, Arial; font-size: 11px; isolation: isolate;"><tspan x="0" y="0">Created with</tspan></text>
  <text transform="translate(497.826 415)" style="fill: #888; font-family: ArialMT, Arial; font-size: 11px; isolation: isolate;"><tspan x="0" y="0">Datawrapper</tspan></text>
  <rect x="10" y="332.89" width="29.124" height="22" style="fill: #e31a1c;"/>
  <rect x="66.995" y="332.89" width="29.124" height="22" style="fill: #18a1cd;"/>
  <rect x="119.99" y="332.89" width="29.124" height="22" style="fill: #4daf4a;"/>
  <text transform="translate(6.407 369.219)" style="font-family: NYTImperial-Regular, NYTImperial; font-size: 12px;"><tspan x="0" y="0">Cent</tspan><tspan x="24.912" y="0" style="letter-spacing: -.02em;">r</tspan><tspan x="29.892" y="0">e-</tspan><tspan x="11.178" y="14.4">left</tspan></text>
  <text transform="translate(59.946 368.62)" style="font-family: NYTImperial-Regular, NYTImperial; font-size: 12px;"><tspan x="0" y="0">Cent</tspan><tspan x="24.912" y="0" style="letter-spacing: -.02em;">r</tspan><tspan x="29.892" y="0">e-</tspan><tspan x="6.72" y="14.4">right</tspan></text>
  <text transform="translate(110.505 375.82)" style="font-family: NYTImperial-Regular, NYTImperial; font-size: 12px;"><tspan x="0" y="0" style="letter-spacing: -.04em;">F</tspan><tspan x="7.38" y="0" style="letter-spacing: 0em;">ar-right</tspan></text>
  <text transform="translate(515.735 304.608)" style="font-family: MyriadPro-Regular, &apos;Myriad Pro&apos;; font-size: 12px;"><tspan x="0" y="0">Last </tspan><tspan x="22.716" y="0" style="letter-spacing: -.01em;">y</tspan><tspan x="28.248" y="0">ear of di</tspan><tspan x="68.723" y="0" style="letter-spacing: .013em;">c</tspan><tspan x="74.255" y="0">t</tspan><tspan x="78.227" y="0" style="letter-spacing: -.004em;">a</tspan><tspan x="83.963" y="0" style="letter-spacing: -.006em;">t</tspan><tspan x="87.862" y="0">orship</tspan></text>
  <g>
    <path d="M470.215,257.409c9.677-6.214,42.792,8.029,77.018,33.591" style="fill: none; stroke: #000; stroke-miterlimit: 10; stroke-width: .75px;"/>
    <polygon points="475.55 257.762 475.433 257.021 470.58 257.783 473.808 254.08 473.243 253.587 468.66 258.843 475.55 257.762"/>
  </g>
  <text transform="translate(569.599 208.272)" style="font-family: MyriadPro-Regular, &apos;Myriad Pro&apos;; font-size: 12px;"><tspan x="0" y="0">Jair </tspan><tspan x="19.499" y="0" style="letter-spacing: .004em;">B</tspan><tspan x="26.051" y="0">olsona</tspan><tspan x="59.255" y="0" style="letter-spacing: -.01em;">r</tspan><tspan x="63.059" y="0" style="letter-spacing: -.033em;">o</tspan><tspan x="69.251" y="0" style="letter-spacing: -.072em;">’</tspan><tspan x="70.87" y="0">s </tspan><tspan x="6.756" y="14.4">g</tspan><tspan x="13.464" y="14.4" style="letter-spacing: -.007em;">o</tspan><tspan x="19.968" y="14.4" style="letter-spacing: -.01em;">v</tspan><tspan x="25.619" y="14.4">e</tspan><tspan x="31.631" y="14.4" style="letter-spacing: .004em;">r</tspan><tspan x="35.603" y="14.4">nme</tspan><tspan x="58.282" y="14.4" style="letter-spacing: -.004em;">n</tspan><tspan x="64.895" y="14.4">t</tspan></text>
  <g>
    <path d="M502.179,161.073c9.677-6.214,42.792,8.029,77.018,33.591" style="fill: none; stroke: #000; stroke-miterlimit: 10; stroke-width: .75px;"/>
    <polygon points="507.514 161.427 507.397 160.685 502.544 161.447 505.772 157.744 505.207 157.251 500.625 162.507 507.514 161.427"/>
  </g>
  <text transform="translate(515.735 304.608)" style="font-family: MyriadPro-Regular, &apos;Myriad Pro&apos;; font-size: 12px;"><tspan x="0" y="0">Last </tspan><tspan x="22.716" y="0" style="letter-spacing: -.01em;">y</tspan><tspan x="28.248" y="0">ear of di</tspan><tspan x="68.723" y="0" style="letter-spacing: .013em;">c</tspan><tspan x="74.255" y="0">t</tspan><tspan x="78.227" y="0" style="letter-spacing: -.004em;">a</tspan><tspan x="83.963" y="0" style="letter-spacing: -.006em;">t</tspan><tspan x="87.862" y="0">orship</tspan></text>
  <g>
    <path d="M470.215,257.409c9.677-6.214,42.792,8.029,77.018,33.591" style="fill: none; stroke: #000; stroke-miterlimit: 10; stroke-width: .75px;"/>
    <polygon points="475.55 257.762 475.433 257.021 470.58 257.783 473.808 254.08 473.243 253.587 468.66 258.843 475.55 257.762"/>
  </g>
  <path d="M33.44,181.76l-.612.107c-.204.036-.384.12-.72.312.396.216.552.287.672.3l.54.035c.276.024.504.265.504.54,0,.228-.216.432-.456.432-.192,0-.384-.12-.6-.384-.312-.384-.36-.396-.66-.575l-.156-.096c0,.455.036.659.144.911.12.275.192.479.192.575,0,.192-.252.408-.48.408-.24,0-.468-.216-.468-.443,0-.133.048-.324.132-.528.144-.348.168-.432.168-.923-.288.155-.42.239-.479.3l-.468.527c-.12.132-.3.216-.444.216-.228,0-.42-.192-.42-.443,0-.24.228-.468.492-.504l.54-.072.312-.132.312-.144c-.336-.168-.648-.276-.899-.324-.648-.132-.768-.216-.768-.552,0-.228.192-.42.419-.42.24,0,.348.072.648.432.216.252.384.384.755.588,0-.456-.024-.588-.18-.959-.084-.204-.12-.384-.12-.504,0-.229.204-.42.444-.42.252,0,.479.216.479.432,0,.084-.036.24-.108.42-.132.312-.216.659-.216.852,0,.023,0,.084.012.18.408-.204.576-.323.684-.468l.288-.384c.084-.107.276-.204.444-.204.264,0,.48.204.48.444,0,.216-.192.432-.408.468Z"/>
  <path d="M7.914,396.929l-.612.107c-.204.036-.384.12-.72.312.396.216.552.287.672.3l.54.035c.276.024.504.265.504.54,0,.228-.216.432-.456.432-.192,0-.384-.12-.6-.384-.312-.384-.36-.396-.66-.575l-.156-.096c0,.455.036.659.144.911.12.275.192.479.192.575,0,.192-.252.408-.48.408-.24,0-.468-.216-.468-.443,0-.133.048-.324.132-.528.144-.348.168-.432.168-.923-.288.155-.42.239-.479.3l-.468.527c-.12.132-.3.216-.444.216-.228,0-.42-.192-.42-.443,0-.24.228-.468.492-.504l.54-.072.312-.132.312-.144c-.336-.168-.648-.276-.899-.324-.648-.132-.768-.216-.768-.552,0-.228.192-.42.419-.42.24,0,.348.072.648.432.216.252.384.384.755.588,0-.456-.024-.588-.18-.959-.084-.204-.12-.384-.12-.504,0-.229.204-.42.444-.42.252,0,.479.216.479.432,0,.084-.036.24-.108.42-.132.312-.216.659-.216.852,0,.023,0,.084.012.18.408-.204.576-.323.684-.468l.288-.384c.084-.107.276-.204.444-.204.264,0,.48.204.48.444,0,.216-.192.432-.408.468Z"/>
  <text transform="translate(10.965 399.398)" style="font-family: NYTImperial-Regular, NYTImperial; font-size: 9px;"><tspan x="0" y="0">Dilma </tspan><tspan x="26.595" y="0" style="letter-spacing: -.02em;">R</tspan><tspan x="32.823" y="0">ou</tspan><tspan x="42.642" y="0" style="letter-spacing: -.007em;">s</tspan><tspan x="46.791" y="0">se</tspan><tspan x="55.592" y="0" style="letter-spacing: .007em;">f</tspan><tspan x="58.499" y="0">f (</tspan><tspan x="67.337" y="0" style="letter-spacing: .01em;">P</tspan><tspan x="73.457" y="0" style="letter-spacing: -.01em;">T</tspan><tspan x="79.127" y="0" xml:space="preserve"> – cent</tspan><tspan x="104.821" y="0" style="letter-spacing: -.02em;">r</tspan><tspan x="108.556" y="0" style="letter-spacing: 0em;">e-left) </tspan><tspan x="134.944" y="0" style="letter-spacing: -.005em;">w</tspan><tspan x="141.919" y="0">as impeached in 2016, with Michel</tspan><tspan x="278.276" y="0" style="letter-spacing: -.02em;"> </tspan><tspan x="280.22" y="0" style="letter-spacing: -.09em;">T</tspan><tspan x="285.17" y="0" style="letter-spacing: 0em;">emer (MDB – cent</tspan><tspan x="359.473" y="0" style="letter-spacing: -.02em;">r</tspan><tspan x="363.208" y="0">e-right) a</tspan><tspan x="401.07" y="0" style="letter-spacing: -.007em;">s</tspan><tspan x="405.22" y="0">suming the p</tspan><tspan x="457.329" y="0" style="letter-spacing: -.02em;">r</tspan><tspan x="461.064" y="0">esiden</tspan><tspan x="487.208" y="0" style="letter-spacing: .005em;">c</tspan><tspan x="491.564" y="0">y for the majori</tspan><tspan x="553.52" y="0" style="letter-spacing: -.01em;">t</tspan><tspan x="556.562" y="0" style="letter-spacing: 0em;">y of that </tspan><tspan x="591.715" y="0" style="letter-spacing: -.005em;">y</tspan><tspan x="596.728" y="0">ear</tspan></text>
</svg>