<?xml version="1.0" encoding="UTF-8"?>
<svg id="exportSvg" xmlns="http://www.w3.org/2000/svg" version="1.1" viewBox="0 0 666 420.89">
  <!-- Generator: Adobe Illustrator 29.6.1, SVG Export Plug-In . SVG Version: 2.1.1 Build 9)  -->
  <defs>
    <style>
      .st0 {
        font-size: 14px;
      }

      .st0, .st1, .st2, .st3, .st4 {
        isolation: isolate;
      }

      .st0, .st1, .st2, .st4 {
        font-family: ArialMT, Arial;
      }

      .st0, .st4 {
        fill: #181818;
      }

      .st1 {
        fill: #fff;
      }

      .st1, .st5, .st6, .st4 {
        font-size: 12px;
      }

      .st2 {
        fill: #888;
        font-size: 11px;
      }

      .st7 {
        fill: #e31a1c;
      }

      .st5, .st8 {
        font-family: NYTImperial-Regular, NYTImperial;
      }

      .st6 {
        font-family: MyriadPro-Regular, 'Myriad Pro';
      }

      .st9 {
        fill: #4daf4a;
      }

      .st8 {
        font-size: 9px;
      }

      .st10 {
        fill: none;
        stroke: #000;
        stroke-miterlimit: 10;
        stroke-width: .75px;
      }

      .st11 {
        fill: #18a1cd;
      }

      .st3 {
        font-family: Arial-BoldMT, Arial;
        font-size: 22px;
        font-weight: 700;
      }

      .st12 {
        fill: #984ea3;
      }
    </style>
  </defs>
  <text class="st3" transform="translate(0 22)"><tspan x="0" y="0">Little Change in Mining Pressure on Indigenous Lands</tspan></text>
  <text class="st0" transform="translate(0 49)"><tspan x="0" y="0">Years under governments from across the political spectrum appear among those with the most</tspan></text>
  <text class="st0" transform="translate(0 66)"><tspan x="0" y="0">mining requests inside these protected areas.</tspan></text>
  <text class="st4" transform="translate(1 93.8)"><tspan x="0" y="0">2011</tspan></text>
  <rect class="st7" x="37.83" y="79" width="561.16" height="20"/>
  <text class="st4" transform="translate(1 117.8)"><tspan x="0" y="0">2008</tspan></text>
  <rect class="st7" x="37.83" y="103" width="556.94" height="20"/>
  <text class="st4" transform="translate(1 141.8)"><tspan x="0" y="0">1996</tspan></text>
  <rect class="st11" x="37.83" y="127" width="540.06" height="20"/>
  <text class="st4" transform="translate(1 165.8)"><tspan x="0" y="0">2021</tspan></text>
  <rect class="st9" x="37.83" y="151" width="455.69" height="20"/>
  <text class="st4" transform="translate(1 189.8)"><tspan x="0" y="0">2016</tspan></text>
  <rect class="st11" x="37.83" y="175" width="455.69" height="20"/>
  <text class="st4" transform="translate(1 213.8)"><tspan x="0" y="0">2013</tspan></text>
  <rect class="st7" x="37.83" y="199" width="443.03" height="20"/>
  <text class="st4" transform="translate(1 237.8)"><tspan x="0" y="0">1994</tspan></text>
  <rect class="st11" x="37.83" y="223" width="434.59" height="20"/>
  <text class="st4" transform="translate(1 261.8)"><tspan x="0" y="0">1984</tspan></text>
  <rect class="st12" x="37.83" y="247" width="426.16" height="20"/>
  <text class="st4" transform="translate(1 285.8)"><tspan x="0" y="0">2019</tspan></text>
  <rect class="st9" x="37.83" y="271" width="405.05" height="20"/>
  <text class="st4" transform="translate(1 309.8)"><tspan x="0" y="0">2020</tspan></text>
  <rect class="st9" x="37.83" y="295" width="388.17" height="20"/>
  <text class="st1" transform="translate(42.83 94)"><tspan x="0" y="0">133</tspan></text>
  <text class="st1" transform="translate(42.83 118)"><tspan x="0" y="0">132</tspan></text>
  <text class="st1" transform="translate(42.83 142)"><tspan x="0" y="0">128</tspan></text>
  <text class="st1" transform="translate(42.83 166)"><tspan x="0" y="0">108</tspan></text>
  <text class="st1" transform="translate(42.83 190)"><tspan x="0" y="0">108</tspan></text>
  <text class="st1" transform="translate(42.83 214)"><tspan x="0" y="0">105</tspan></text>
  <text class="st1" transform="translate(42.83 238)"><tspan x="0" y="0">103</tspan></text>
  <text class="st1" transform="translate(42.83 262)"><tspan x="0" y="0">101</tspan></text>
  <text class="st1" transform="translate(42.83 286)"><tspan x="0" y="0">96</tspan></text>
  <text class="st1" transform="translate(42.83 310)"><tspan x="0" y="0">92</tspan></text>
  <text class="st2" transform="translate(0 415)"><tspan x="0" y="0">Chart:</tspan></text>
  <text class="st2" transform="translate(32.69 415)"><tspan x="0" y="0">Phillippe Watanabe</tspan></text>
  <text class="st2" transform="translate(129.8 415)"><tspan x="0" y="0">•</tspan></text>
  <text class="st2" transform="translate(136.39 415)"><tspan x="0" y="0">Source:</tspan></text>
  <text class="st2" transform="translate(177.04 415)"><tspan x="0" y="0">Mining Geographic Information System (SIGMINE)</tspan></text>
  <text class="st2" transform="translate(426.75 415)"><tspan x="0" y="0">•</tspan></text>
  <text class="st2" transform="translate(433.34 415)"><tspan x="0" y="0">Created with</tspan></text>
  <text class="st2" transform="translate(497.83 415)"><tspan x="0" y="0">Datawrapper</tspan></text>
  <rect class="st7" x="10" y="332.89" width="29.12" height="22"/>
  <rect class="st11" x="67" y="332.89" width="29.12" height="22"/>
  <rect class="st9" x="119.99" y="332.89" width="29.12" height="22"/>
  <text class="st5" transform="translate(6.29 369.22)"><tspan x="0" y="0">Centre-</tspan><tspan x="11.3" y="14.4">left</tspan></text>
  <text class="st5" transform="translate(59.83 368.62)"><tspan x="0" y="0">Centre-</tspan><tspan x="6.84" y="14.4">right</tspan></text>
  <text/>
  <text class="st5" transform="translate(110.26 375.82)"><tspan x="0" y="0">Far-right</tspan></text>
  <text class="st6" transform="translate(515.69 304.61)"><tspan x="0" y="0">Last year of dictatorship</tspan></text>
  <g>
    <path class="st10" d="M470.22,257.41c9.68-6.21,42.79,8.03,77.02,33.59"/>
    <polygon points="475.55 257.76 475.43 257.02 470.58 257.78 473.81 254.08 473.24 253.59 468.66 258.84 475.55 257.76"/>
  </g>
  <text class="st6" transform="translate(568.93 208.27)"><tspan x="0" y="0">Jair Bolsonaro’s </tspan><tspan x="7.32" y="14.4">government</tspan></text>
  <g>
    <path class="st10" d="M502.18,161.07c9.68-6.21,42.79,8.03,77.02,33.59"/>
    <polygon points="507.51 161.43 507.4 160.69 502.54 161.45 505.77 157.74 505.21 157.25 500.62 162.51 507.51 161.43"/>
  </g>
  <text class="st6" transform="translate(515.69 304.61)"><tspan x="0" y="0">Last year of dictatorship</tspan></text>
  <g>
    <path class="st10" d="M470.22,257.41c9.68-6.21,42.79,8.03,77.02,33.59"/>
    <polygon points="475.55 257.76 475.43 257.02 470.58 257.78 473.81 254.08 473.24 253.59 468.66 258.84 475.55 257.76"/>
  </g>
  <path d="M33.44,181.76l-.61.11c-.2.04-.38.12-.72.31.4.22.55.29.67.3l.54.04c.28.02.5.26.5.54,0,.23-.22.43-.46.43-.19,0-.38-.12-.6-.38-.31-.38-.36-.4-.66-.58l-.16-.1c0,.46.04.66.14.91.12.28.19.48.19.58,0,.19-.25.41-.48.41-.24,0-.47-.22-.47-.44,0-.13.05-.32.13-.53.14-.35.17-.43.17-.92-.29.16-.42.24-.48.3l-.47.53c-.12.13-.3.22-.44.22-.23,0-.42-.19-.42-.44s.23-.47.49-.5l.54-.07.31-.13.31-.14c-.34-.17-.65-.28-.9-.32-.65-.13-.77-.22-.77-.55,0-.23.19-.42.42-.42.24,0,.35.07.65.43.22.25.38.38.76.59,0-.46-.02-.59-.18-.96-.08-.2-.12-.38-.12-.5,0-.23.2-.42.44-.42.25,0,.48.22.48.43,0,.08-.04.24-.11.42-.13.31-.22.66-.22.85,0,.02,0,.08.01.18.41-.2.58-.32.68-.47l.29-.38c.08-.11.28-.2.44-.2.26,0,.48.2.48.44,0,.22-.19.43-.41.47Z"/>
  <path d="M7.91,396.93l-.61.11c-.2.04-.38.12-.72.31.4.22.55.29.67.3l.54.04c.28.02.5.26.5.54,0,.23-.22.43-.46.43-.19,0-.38-.12-.6-.38-.31-.38-.36-.4-.66-.58l-.16-.1c0,.46.04.66.14.91.12.28.19.48.19.58,0,.19-.25.41-.48.41-.24,0-.47-.22-.47-.44,0-.13.05-.32.13-.53.14-.35.17-.43.17-.92-.29.16-.42.24-.48.3l-.47.53c-.12.13-.3.22-.44.22-.23,0-.42-.19-.42-.44s.23-.47.49-.5l.54-.07.31-.13.31-.14c-.34-.17-.65-.28-.9-.32-.65-.13-.77-.22-.77-.55,0-.23.19-.42.42-.42.24,0,.35.07.65.43.22.25.38.38.76.59,0-.46-.02-.59-.18-.96-.08-.2-.12-.38-.12-.5,0-.23.2-.42.44-.42.25,0,.48.22.48.43,0,.08-.04.24-.11.42-.13.31-.22.66-.22.85,0,.02,0,.08.01.18.41-.2.58-.32.68-.47l.29-.38c.08-.11.28-.2.44-.2.26,0,.48.2.48.44,0,.22-.19.43-.41.47Z"/>
  <text class="st8" transform="translate(10.01 399.4)"><tspan x="0" y="0">Dilma Rousseff (PT – centre-left) was impeached in 2016, with Michel Temer (MDB – centre-right) assuming the presidency for the majority of that year</tspan></text>
</svg>